PathFileType	4	(X/Y/Z)	46_2_19_p1_0-866_filt_butterworth.trc
DataRate	CameraRate	NumFrames	NumMarkers	Units	OrigDataRate	OrigDataStartFrame	OrigNumFrames
59.0	59.0	4	27	m	59.0	0	866
Frame#	Time	RHip			RKnee			RAnkle			RBigToe			RSmallToe			RHeel			LHip			LKnee			LAnkle			LBigToe			LSmallToe			LHeel			Neck			Head			Nose			RShoulder			RElbow			RWrist			RThumb			RIndex			RPinky			LShoulder			LElbow			LWrist			LThumb			LIndex			LPinky			
		X1	Y1	Z1	X2	Y2	Z2	X3	Y3	Z3	X4	Y4	Z4	X5	Y5	Z5	X6	Y6	Z6	X7	Y7	Z7	X8	Y8	Z8	X9	Y9	Z9	X10	Y10	Z10	X11	Y11	Z11	X12	Y12	Z12	X13	Y13	Z13	X14	Y14	Z14	X15	Y15	Z15	X16	Y16	Z16	X17	Y17	Z17	X18	Y18	Z18	X19	Y19	Z19	X20	Y20	Z20	X21	Y21	Z21	X22	Y22	Z22	X23	Y23	Z23	X24	Y24	Z24	X25	Y25	Z25	X26	Y26	Z26	X27	Y27	Z27	
0	0.0	0.3615668091834904	0.41585907001690714	0.6540311748077633	0.3706982728812343	0.4574328985562136	1.1050521856853606	0.3574719917283209	0.5078811407786892	1.531839852206623	0.3590367429262457	0.37857812897260296	1.5381021182952397	0.4172791651716714	0.3998760920588791	1.5355815298699267	0.32724040900176316	0.5719344052734673	1.5911504534477636	0.1507709200021283	0.41268325002491346	0.6812118304246619	0.1500066268206388	0.4530513161443871	1.0959161151998724	0.14806063639854217	0.5059982936294863	1.5206795098557135	0.19019369056731752	0.33918674448338415	1.5170266919169655	0.12955687425420073	0.3707762018820344	1.5212822863706323	0.14013405274589455	0.5740475536290299	1.574513582518495	0.27501245504552285	0.39924134934964417	0.14580733670805726	0.2927024532806337	0.3440651261707544	-0.10641596620158725	0.27686820553162217	0.279737223229491	0.029038947733209898	0.4147732920919069	0.37816680477179243	0.22931980910233085	0.48126187795718145	0.32255197565380644	0.4663905009321861	0.34470944596759573	0.25090581793725836	0.6620177275946069	0.2492301446386488	0.3143414257079848	0.7843416085555956	0.24896591945940616	0.3140944566100289	0.785113900195034	0.27495259158538315	0.2506270078031029	0.7671364806831212	0.12470201379935918	0.34714295110878385	0.21621664496700127	0.08586692968504409	0.3128265747508573	0.4635575464700141	0.1948996327807939	0.23491399634737675	0.6623964281921626	0.2951024391272989	0.25930261708756985	0.7300136997917048	0.29466592092211324	0.2551649300834658	0.7558328825896695	0.2518043932459137	0.20909813036220062	0.7661705581001733
1	0.0169491525423728	0.3636518900374576	0.3991379870967736	0.6473978998901847	0.37050526869094763	0.4557661502042427	1.1041621182102312	0.361224595831855	0.4998874160589859	1.5241051816915687	0.35984805300627537	0.3781982488314329	1.5350944188753646	0.41843201946384156	0.3944243882931021	1.5326888584135574	0.325503245451324	0.5766661874909788	1.593496723350507	0.15088777314398177	0.41114976268814085	0.6757362481424725	0.14939356940999415	0.4508067319000383	1.0897406134996754	0.14724672469753916	0.5053327565690303	1.521030959017804	0.19134432076398733	0.33415273230399384	1.5145691677921658	0.13099023783569902	0.3670378194516992	1.5198664257841776	0.1450549536782854	0.5630871390593086	1.571030425083977	0.2744842849224097	0.39536756004345336	0.1491182068406157	0.2928915024113846	0.3457958237015786	-0.10632723473816501	0.28081644305205894	0.27107258274068624	0.027780934195540796	0.4145774462935221	0.3783989648463071	0.22751164646776686	0.48128076415433935	0.32248635010595106	0.4635135466587426	0.3462518517314039	0.27338014177835335	0.6684315993375265	0.2457661104491029	0.31262269352421856	0.7817782125998494	0.24817938145509155	0.30843300998772605	0.7831072455227168	0.2757461964410681	0.25507565286269845	0.7658725052606515	0.124653407632503	0.3472151152385566	0.21527742511331177	0.08542054152780941	0.30818446496839313	0.4625442999275948	0.1947574329649327	0.23489080807166987	0.6628221808734434	0.28821946303453116	0.26307598905188245	0.7344265706435634	0.28932677924548533	0.2611800830474395	0.7600300159064537	0.2541407814055236	0.23645256728818737	0.7706132381182147
2	0.0338983050847457	0.3647604893110778	0.38919873467451793	0.6441624569791478	0.37037066298985744	0.4550231496260965	1.1037308283377856	0.36226680917156234	0.4979343869824047	1.5216070777461705	0.36029406230276745	0.3779916338670191	1.533297936206667	0.41792585911978664	0.3909593875630545	1.5314192743253172	0.3247889835232963	0.5786583328286002	1.5945265136343667	0.15102021385432324	0.41017608259540195	0.6733009904915316	0.1491288939711644	0.44980469646229404	1.0870028309764972	0.14684628871144564	0.5052211653070174	1.521502793210121	0.19115068076296704	0.33008065828290467	1.5108957334019224	0.1311015081862241	0.36646369287017155	1.5195438011866313	0.14796785859326236	0.5566219779238097	1.5689347360335149	0.27388551826376484	0.39130027121156874	0.15101164301179595	0.293676130263677	0.3464980796269324	-0.10630213455376629	0.2839444417129923	0.26755407048010116	0.027557841975750032	0.4144787495557909	0.37846346291034383	0.227062719385048	0.48085769549330076	0.323409671660562	0.46207523404410006	0.34629416231602617	0.29149926904769086	0.6736816216165714	0.24321414360382515	0.3155211793864508	0.7816189766469062	0.24802182674035997	0.30719748362547694	0.7826025680980461	0.2765361978984329	0.2591322863483125	0.7656337509991684	0.124594363895951	0.3472038425267681	0.21520769580524235	0.08499735458032977	0.3036952872307108	0.4616458665829092	0.19474809714383606	0.23503290036479732	0.6628119094329855	0.28365537611628405	0.2669223093951505	0.738103302992137	0.2854556017018572	0.26852671908586606	0.764034937627587	0.25529149203573553	0.2598338411747651	0.775106804054537
3	0.0508474576271186	0.3649772305349309	0.38648575721216033	0.6443584175369237	0.3703237839498576	0.4549943905554025	1.1037633135173353	0.3606795729160386	0.5015671439881517	1.5242274537200988	0.36034228113882477	0.3779149522475514	1.5327406336148461	0.41629148236261665	0.3888660508632215	1.531213870468466	0.32541945107411036	0.5770610597729469	1.593754120541599	0.15115233714651005	0.40975268227195083	0.6738512536968735	0.14920653088281993	0.4500140062468979	1.087658469339785	0.14683435305247167	0.5055137487002954	1.5222911578618417	0.1900720401630524	0.3267061235586793	1.506251169644234	0.13030894431072934	0.36813948487732695	1.5200314031647668	0.14876134236578692	0.5549000614709981	1.568403512845919	0.27337307127799004	0.38812589395093716	0.15099169203553853	0.2951447080515365	0.3442505665124579	-0.10637443315962664	0.285666350619256	0.26837636731919345	0.028066452378717605	0.41450246758456044	0.3783687690624909	0.2278878347591224	0.47961587429931046	0.32651243621371906	0.4629593216320956	0.3447285899774304	0.30462886802451533	0.6775612420833168	0.24212743231054437	0.3214934319327143	0.783348918731441	0.2484475294616423	0.3101063483246301	0.7835047989045257	0.27712230105212066	0.26187285727737214	0.7661863521640391	0.12453871401027415	0.34714928178936055	0.2157401464250192	0.08469773349222975	0.30053070564692846	0.461130333225809	0.19481856265415826	0.23603719414611035	0.6633494958558631	0.28242086682468076	0.2702234326246459	0.741001300634582	0.2838956119668362	0.2757142176559902	0.7675160485828778	0.25510290772124333	0.27773888944574693	0.7798667224460795
